<?xml version="1.0" standalone="no"?>
<!DOCTYPE svg PUBLIC "-//W3C//DTD SVG 20010904//EN"
 "http://www.w3.org/TR/2001/REC-SVG-20010904/DTD/svg10.dtd">
<svg version="1.0" xmlns="http://www.w3.org/2000/svg"
 width="512.000000pt" height="512.000000pt" viewBox="0 0 512.000000 512.000000"
 preserveAspectRatio="xMidYMid meet">
<metadata>
Created by potrace 1.11, written by Peter Selinger 2001-2013
</metadata>
<g transform="translate(0.000000,512.000000) scale(0.100000,-0.100000)"
fill="#000000" stroke="none">
<path d="M3840 5046 c0 -4 15 -37 34 -74 67 -135 94 -245 101 -410 9 -229 28
-315 97 -429 34 -57 135 -167 223 -241 42 -35 52 -40 63 -28 17 17 23 143 12
241 -14 115 -21 168 -26 200 -6 29 -5 29 10 9 15 -20 53 -111 54 -127 0 -9 13
-84 18 -112 3 -11 6 -94 9 -185 2 -91 4 -172 5 -180 2 -22 76 135 99 210 48
156 47 318 -5 462 -76 210 -260 406 -556 591 -111 69 -138 84 -138 73z"/>
<path d="M3006 4957 c71 -42 104 -78 201 -224 135 -203 229 -284 384 -331 74
-23 159 -38 159 -28 0 17 -64 131 -115 205 -57 84 -51 93 17 27 46 -45 101
-125 157 -231 24 -44 46 -82 48 -85 11 -10 -8 157 -24 210 -64 227 -269 399
-530 446 -15 3 -47 9 -71 15 -23 5 -93 12 -155 15 l-112 5 41 -24z"/>
<path d="M2479 4526 c-2 -2 -26 -6 -54 -10 -215 -26 -412 -86 -633 -193 -103
-50 -112 -63 -44 -63 15 0 70 -9 122 -20 52 -11 104 -22 116 -24 11 -2 69 -20
129 -40 197 -66 367 -157 495 -266 36 -30 87 -69 113 -87 83 -56 263 -102 462
-119 82 -6 388 -6 460 1 22 2 68 4 103 6 37 1 62 6 62 13 0 23 -43 83 -93 129
-77 72 -165 127 -337 211 -149 72 -199 101 -189 110 8 7 237 -72 315 -110 354
-168 709 -525 898 -901 79 -156 153 -372 172 -503 3 -19 7 -42 9 -50 13 -47
20 -166 19 -320 -1 -148 -5 -194 -27 -301 -100 -477 -364 -877 -802 -1215
-245 -188 -492 -311 -765 -377 -123 -30 -180 -40 -330 -57 -79 -8 -444 -6
-470 3 -8 3 -40 8 -70 11 -96 10 -178 26 -314 61 -156 40 -235 69 -376 137
-532 259 -914 647 -1080 1098 -32 87 -76 246 -85 305 -3 23 -7 50 -9 61 -23
118 -24 533 -1 653 1 9 6 43 9 76 4 33 9 71 11 85 7 37 12 70 19 120 l6 45
-16 -40 c-19 -49 -72 -228 -80 -269 -3 -16 -6 -32 -8 -35 -2 -3 -7 -31 -11
-61 -4 -30 -8 -57 -10 -60 -17 -28 -26 -385 -12 -510 26 -256 92 -483 207
-715 215 -436 536 -759 973 -979 166 -83 207 -101 360 -151 169 -55 337 -93
487 -110 30 -3 73 -8 95 -10 103 -12 446 -5 526 10 9 2 40 6 70 10 30 3 61 8
69 10 8 2 31 7 50 10 132 22 365 96 517 163 674 299 1185 920 1278 1552 4 24
8 47 10 50 16 26 23 364 10 510 -10 123 -12 139 -19 178 -3 17 -8 47 -11 65
-3 17 -8 39 -10 47 -2 8 -7 31 -10 50 -3 19 -11 53 -16 75 -6 22 -13 48 -15
58 -2 11 -17 62 -34 114 -263 809 -859 1366 -1635 1528 -44 9 -98 19 -120 21
-21 2 -51 7 -65 10 -27 7 -415 15 -421 10z"/>
<path d="M2065 4058 c-26 -7 -74 -17 -205 -43 -171 -33 -281 -69 -425 -140
-400 -196 -696 -477 -873 -831 -73 -145 -144 -378 -157 -518 -3 -33 -8 -63
-11 -67 -5 -9 -6 -337 -1 -364 3 -11 8 -47 12 -80 21 -184 111 -435 226 -631
194 -328 485 -592 854 -774 228 -112 426 -172 681 -207 67 -9 428 -10 489 -1
28 4 70 10 95 13 81 11 283 63 380 98 104 38 216 89 325 150 96 54 345 220
345 231 0 4 -12 6 -27 2 -35 -7 -199 -35 -244 -41 -173 -22 -563 -23 -701 0
-13 2 -59 9 -103 15 -188 28 -388 87 -520 153 -67 33 -188 112 -237 154 -95
82 -155 141 -252 247 -96 105 -190 259 -215 352 -43 161 0 337 134 549 29 45
218 293 251 329 33 35 205 285 258 375 84 142 149 299 182 440 16 66 12 227
-7 300 -48 186 -162 317 -254 289z m94 -783 c-45 -150 -132 -327 -238 -480
-79 -115 -128 -174 -263 -316 -141 -149 -190 -212 -230 -296 -37 -79 -40 -91
-44 -188 -3 -87 13 -177 51 -282 12 -35 19 -63 15 -63 -4 0 -31 25 -61 55 -81
82 -130 169 -156 275 -10 41 -8 141 5 189 33 132 98 218 302 401 123 110 210
197 271 270 30 36 56 67 59 70 16 14 155 211 225 317 44 67 81 120 82 119 1
-1 -7 -33 -18 -71z"/>
<path d="M2230 4026 c0 -4 8 -20 19 -34 73 -105 179 -309 246 -472 25 -63 75
-170 110 -237 100 -189 110 -219 110 -348 0 -96 -4 -123 -32 -210 -56 -177
-53 -221 17 -231 51 -8 57 -20 17 -33 -58 -19 -59 -27 -16 -126 64 -148 55
-184 -56 -216 -82 -24 -91 -36 -63 -84 39 -65 17 -88 -92 -94 -11 -1 -11 -4
-2 -13 21 -21 13 -37 -28 -64 l-41 -27 7 -59 c8 -71 -4 -100 -53 -123 -42 -20
-127 -13 -186 15 -27 14 -39 15 -43 7 -18 -47 -32 -155 -29 -227 4 -88 18
-135 55 -183 l22 -28 28 60 c43 90 95 161 230 316 115 132 230 276 230 290 0
4 11 21 24 38 78 105 174 315 211 462 26 104 30 153 30 335 -1 189 -20 299
-78 460 -82 226 -243 459 -459 665 -156 149 -178 169 -178 161z"/>
<path d="M2391 3635 c3 -9 -9 -130 -16 -165 -1 -8 -6 -33 -9 -55 -44 -276
-158 -509 -355 -724 -13 -14 -37 -43 -55 -65 -17 -21 -36 -43 -42 -50 -76 -81
-168 -249 -179 -331 -4 -27 -9 -57 -10 -65 -6 -31 17 -137 40 -187 13 -29 25
-53 27 -53 2 0 4 35 4 78 3 144 42 214 299 537 212 265 280 372 335 524 42
117 55 245 37 359 -8 53 -52 181 -67 196 -7 6 -10 7 -9 1z"/>
<path d="M2373 2732 c-13 -2 -23 -8 -23 -13 0 -5 3 -8 8 -8 34 6 66 -8 118
-50 70 -57 117 -70 122 -34 5 34 -14 59 -60 81 -42 20 -121 32 -165 24z"/>
<path d="M2261 2570 c45 -68 139 -109 195 -84 25 11 26 12 8 13 -29 1 -39 29
-18 53 10 10 14 21 11 25 -4 4 -13 -2 -20 -11 -23 -31 -100 -21 -182 23 -5 3
-3 -6 6 -19z"/>
</g>
</svg>
